# xmcd
#
# Track frame offsets:
# 150
# 12752
# 27015
# 41972
# 54161
# 69931
# 86875
# 101119
# 112305
# 124490
# 139694
# 154124
# 166632
#
# Disc length: 2391 seconds
#
# Revision: 1
# Processed by: cddbd v1.5.1PL0 Copyright (c) Steve Scherf et al.
# Submitted via: CedeCatalogueitor 2.6.0.6 http://personales.ya.com/cdcatalogueitor
#
DISCID=ab09550d
DTITLE=Pedro Guerra - Bolsillos
DYEAR=2004
DGENRE=
TTITLE0=El Circo De La Realidad
TTITLE1=Canciones
TTITLE2=Tendencias
TTITLE3=Dios
TTITLE4=El Hombre Blanco
TTITLE5=Bolsillos
TTITLE6=Topo
TTITLE7=Si Tú Quisieras
TTITLE8=Mapa De Carretera
TTITLE9=Huesos
TTITLE10=Menguante
TTITLE11=Life Vest Under Your Seat
TTITLE12=Síndrome De Altamira
EXTD=Falta La Pista Nº 12 "Maquila"
EXTT0=
EXTT1=
EXTT2=
EXTT3=
EXTT4=
EXTT5=
EXTT6=
EXTT7=
EXTT8=
EXTT9=
EXTT10=
EXTT11=
EXTT12=
PLAYORDER=
